<svg height="512pt" viewBox="0 0 512 512" width="512pt" xmlns="http://www.w3.org/2000/svg" xmlns:xlink="http://www.w3.org/1999/xlink"><linearGradient id="a" gradientTransform="matrix(1 0 0 -1 0 -18718)" gradientUnits="userSpaceOnUse" x1="0" x2="512" y1="-18974" y2="-18974"><stop offset="0" stop-color="#00f38d"/><stop offset="1" stop-color="#009eff"/></linearGradient><path d="m512 256c0 141.386719-114.613281 256-256 256s-256-114.613281-256-256 114.613281-256 256-256 256 114.613281 256 256zm0 0" fill="url(#a)"/><path d="m271.664062 241v-51.40625h-30v51.40625h-21.796874v-104.53125h-30v104.53125h-22.460938v-155h-30v155h-23.125v-117.8125h-30v147.8125h157.382812v51.40625h30v-51.40625h21.796876v104.53125h30v-104.53125h22.460937v155h30v-155h21.796875v117.8125h30v-147.8125zm0 0" fill="#fff"/></svg>